<mxfile host="app.diagrams.net" agent="Mozilla/5.0 (Windows NT 10.0; Win64; x64) AppleWebKit/537.36 (KHTML, like Gecko) Chrome/140.0.0.0 Safari/537.36" version="28.2.0">
  <diagram name="Página-1" id="Tqn6_gO7mGtIMJsqF_Sc">
    <mxGraphModel dx="1426" dy="775" grid="1" gridSize="10" guides="1" tooltips="1" connect="1" arrows="1" fold="1" page="1" pageScale="1" pageWidth="827" pageHeight="1169" math="0" shadow="0">
      <root>
        <mxCell id="0" />
        <mxCell id="1" parent="0" />
        <mxCell id="yQ1LGu9JGNTzou9qTPWQ-1" value="Paso 1: Carga Audios en Genesys Cloud (uso transversal en todas las divisiones)" style="text;html=1;align=left;verticalAlign=middle;whiteSpace=wrap;rounded=0;fontStyle=1" vertex="1" parent="1">
          <mxGeometry x="20" y="130" width="560" height="30" as="geometry" />
        </mxCell>
        <mxCell id="yQ1LGu9JGNTzou9qTPWQ-3" value="&lt;u&gt;PASOS MODIFICACIÓN FLUJO HABITUAL GENESYS CLOUD&lt;/u&gt;" style="text;html=1;align=center;verticalAlign=middle;whiteSpace=wrap;rounded=0;fontStyle=1" vertex="1" parent="1">
          <mxGeometry x="230" y="40" width="400" height="30" as="geometry" />
        </mxCell>
        <mxCell id="yQ1LGu9JGNTzou9qTPWQ-4" value="" style="ellipse;shape=cloud;whiteSpace=wrap;html=1;fillColor=#f5f5f5;fontColor=#333333;strokeColor=#666666;" vertex="1" parent="1">
          <mxGeometry x="370" y="180" width="180" height="80" as="geometry" />
        </mxCell>
        <mxCell id="yQ1LGu9JGNTzou9qTPWQ-5" value="" style="shape=image;verticalLabelPosition=bottom;labelBackgroundColor=default;verticalAlign=top;aspect=fixed;imageAspect=0;image=data:image/png,iVBORw0KGgoAAAANSUhEUgAAAQIAAABLCAYAAACbb4lAAAAAAXNSR0IArs4c6QAAAARnQU1BAACxjwv8YQUAAAAJcEhZcwAADsMAAA7DAcdvqGQAABm8SURBVHhe7Z15fFTV2ce/ZLZsk0nIgLxCotK+FQqCVpZaUKyiVCAsspMIBllUXChViyKbSEGWiCwKLlBcEBVEZCtVKGooDdCPhIJEW9GSYN/iJJNhJslsN75/3JmbyWUmmS0htOf7+dxPmHueucy9597fPec5z3NOq5qamh8QCAT/1SSodwgEgv8+hBAIBAIhBAKBQAiBQCAQQiAQCBBCIBAIEEIgEAgQQiAQCBBCIBAIEEIgEAgQQiAQCBBCIBAIEEIgEAgQQiAQCABatdg05H+fg6IDcP47aHsl3HIXpJvVVgKBIA60TCH4fQFsmA1pWtCkgFQFF7zw2Msw5B61tUAgiJGW1zXYt00WgXbZ4PGC1Sb/bZcNy6fCkYPqbwgEghhpeS2CAUmQegW4ymF5IXTqLj/8c+6S9yemwVsn1N8SCAQx0LJaBGXfyH9d5TD1RVkEAHrdCqPmg9cJpX+HSku9rwkEgthoWUIQiCG5/ue0jPqfBQJB3GhZQtDhGvmvIRNeX1D35i/7Bt6aC9pEyDCJ0QOBIM60LCEAGLcIHP8G5wUYkwW53eC+n4LBJO9/cK36GwKBIEZanhDcOxP6TIDv/w2JJnCcl//+31kYMgsGjFB/QyAQxEjLGzXwc6II9m+HivPQ7iq4fVid81AgEMSVlisEAoGg2WhaIXC75BBhxwV1SeNkmOGK9uq9TcKZM99w6tQpvv3nPzn/veygbNvGzNVXXUV2djbdu3dTfyUsTpeUqHdFzY86dkSv16t343a7+frMGeVzKLtIKC4+gd4gH6ND+/YYjUa1CQClpWU4qhzq3VHRxmzGbA7PCVxaWsbx48eD1leXLl3o2NHndA5BYL24Xe6o61eN3W6n7Nw55XNj52SxWCgp+ZKTp77AarVSXVNDclISWVlZXNe1S4O/68jRYxj0evQGPakpqWRldcDtdlNWdq7R8w9G0wjBiSJ4owCKPoQkdWEE6LQw7GmYMAP0BnVpzOzavYfX39hMRYUVnU6HVqtFo61zm0jeWmpqatDpdOSOH0Ne7rh632+MuwYNw+PxqHdHTKXNxvatW8jK6qAuorS0jOEjx5JuMuHxePjVgP48OesJtVlE9Ojdl3STCbvdwYplv6Nv3z5qEwDWrX+Ft7e8h06nUxdFhMfjYcrk/Eav75Gjx1j74jrOni0jMTExZH21bp3BIw89EPJ3FxYeYsZvfhvWOUbCnHkLKCw8jEajodJm408f7w0qoqWlZbz86mt8+ukhkpOTg56H1+sFCHnfWSwW3t7yDtOmTmFFwUpuv/02APbvPxBV/cdfCJ6fBdtfgDZXgMYAkkttER4a34Nf/Z0cYrzsIHTrrbaKCrvdzkOP/Jrz5y0kJRnQJGgA8EheJG8tABptAgmtWilljqpqtFotLzy/LGzFHT02jx9q5ePFgrXSxsbX1ocUgvz7ppGRbgLAUl7Bi2tX0rlTJ7Vp2PT75Z20bWPGUVXN7CcfD/mQbNi4ie0f7CTR13qIFqfLzZjRI4Le8H4WL1nKHz86QEaGKWR96TRaAKRaiQsXHNx+W7+QD8XDj8zk3Hfn0CRocLrc7NyxVW0SEadLSnhw+gzMma1xVFXz4P2TyckZrDZj1+49LFu+kozW6fV+r8cjQYj7rm1bM2tWPX+RqLz51tvk5Y5j585d9fYH+38bI76jBs9Mg/1r5bwArxNsZ8F4BXS4LvKt+jv5+8lXgikbHrpVbmnEiMViYfTYe7Db7aSmyEFLjqpqnC4313XtwqCBAxg+LIfePXug1eqwVtqQaiVSU5LR6TTk3zeN4uLIQ5ydLjeW8oqotkqbTX24kGRkmFjy3HL17iZHqpUu+t3hbufPf68+XD3mzFvAp5/9GXNmazQJmnr1NXxYjlJfTpcbR1U1mgQNGekmPv3sz8yZt0B9OACeeHwm5eVW5fOGjZvqlUfKkueWk5FhQqqVMBpTgz6MfhFo28aMTqPF6XJjrbSRnZWl3He3/7LfRfed3W7nnnvvw+121zue/7Ptgp1WCQm0SkjAdsFezyZc4tci2LcNCvLkh7b6O+g1Hh5ZFFvwz5GDsGisHEikMcjHfd8SUzfh7pFjAJQ3QevW6cyc8UjI/tiZM9+wcdPrHDv2uSIclvIK3nvnzQb7fwS0CJwuN1Mn30tOzuCLKjNcQvX71S0CfMIW6o0UDpG2CHQ6DdlZWax8fnncz2/X7j2sfGEtGenyQ1ZT42rwNxUWHuK5Zc+j02nQJGiwVtp49OEHgl6L1WvW8seP/kSiQR92nQZj1+49rH3xZVJTkrFW2lixbPFF95PFYmHEqPG0bSMf31JewT1548jLHRf03M+c+YYFCxdRUVFJokGPR/JydXY2K5+vE3m73Y7RaMRut2MwyM+Ey+W6qOUQDvFrEbw4XRYBlw1unw5z18cmAvhyDDadlHMP/HwQvXKvXrMWj0dS3iq/uKkXmza+elGlBdKx4zUsXDCPB++fjLVSfjNnZJj4zeOz1KYh8Xq9tEqQL7Ver49qi4TUlGQKVq7Bbo/u7RAL6t8d7haKtS++rIicxyPxxqZXQ4oAQN++fdj85kZqf/gBqVYiI93EC6tfCnotpk2dQk1NDQCm9DReWB15sJrb7VZEQKqV6Nqlc9D76ZVXN5DROh18IvDckmeZlD8x5Ll37HgNmza+yvXXX4dH8qLTaDl56nS91qj/gTcajcp1jEYEiJsQnCgCp6/5KlXBr5eoLaIn3QyPbZFbA4ZM2LFGbREWFouFrdt2KOrao8cNIfuPwcjJGcz4caNxutxoEjScO/cvjhw9pja75Dhd8hvZlJ7G0uUF6uLLiuLiE4qz1VFVzZynZ4X1xjYajRQsew6rVb4nk5KSOHjwE7UZer2eRx9+AEdVNTqNlsOHj0Tc7duwcRNardzXLy+38vTsi18QbrebP350QOkO3D08h149e6jNgrJwwTzl32lpqbz62u/rlceL+AjBt1/JHn6XDe56TF0aO7/oLzsMNQY5+9AduQPyw527SUtLA8Bhr+KJx2aqTRplUv5EkpISkWol0tJS2bx5i9rkkuKRvAwaOACny41Oo6Ww8HDEN3ZL4m8nT5GUJA87JSUZwn548L1R+/a9SX6b6jRsff8DtQn4BN5oTFXqdNHipWqTkMie+/dINOhxutyMGzsqqFCdPl1CYmIiADU1NQwbOlRt0iCTJ92r+D5O/O1k0NZNrMRHCJxy8wqpCrI6qktjR2+Q5yIAeTiyOvILsWv3HqXChg4ZGHUTasI946mpcaFJ0PD58RNNUinR4rBXkTt+LFdflS03izNMEd3YLY3S0lI02gQ8kpeePW5UFzfKyLuHY62oxOORKCn5OxZL8PT12U8+wYULDjQJGux2x0Ve+FA8u2iJ0tz3er1Myp+oNgFfX96PTqcLOvrTEHfe0Z/qatlBiq+lFG/iIwSJvmABTYocQBRv3C454QigBkiO7CG2WCxKM9Hr9XLLzTerTcKm3y03U1FhVSrldMmXapNLisvlUjzi/hv7zbfeVptdFlTX1JDQqhUAqakp6uJG6dy5ExMn5DJm9AimTZ2kLlbo3r0bN93UC4/kJTUlmRdWv9So07O4+AQnT51Gp9HiqKpm+oNTQ/b3A0d9/N2ISNDr9UyZnM+Y0SOYOCEXvc8xGE/iIwRX/0RuuhtMsPcldWnsHD9c9+922RGPGpw7953SNHM6nWHHAQTDaDTy8EP3M2b0CKZMzscQovIvJVlZHRg5YihOl5vUlGRe27Ap5NuwJZOclETtD/KglsNRpS5uFL1ez6T8ieTljmNS/sSgzXY/jz48HVulHAGblJTE+pdfUZvUY9HipaSlyV2Ktm3NDB40UG2ikG6qG9HxBwpFSl6uPMIwKX9iRF2kcImPEHTrLfsI8M0u9OpzaovocbvguXvrhiUHTlNbNEpg00yj0UTdLfDjr5S83HFBPcQtgWlTpyg3XbQe8UtNVlYWkrcWnUZLURM7Zs1mM2NGj8DpcpNo0LN12w5KS8vUZgDs3LkLu13uSlitNmb9tmG/WKY5U3F6ejyekMe9lMRHCECeWswfAPTefDnCMAqnXj1KiiG/Z91njxfGTw+0CIvApllaWmq9sv9U9Ho9s598HGulTfGIt8RRjoa4rmsXRcxcTneT//5J+ROV/y8zM4MVBSvVJrjdbl5c9yqpKcl4JC99+97UaBTnjzp2RJLkyMFUYwof7NihNrnkxE8IhtwD3YbIb21TNhz8PfRPh0dz5IjDSLY5k2D0tfDoz+UJSjQGeT6ChXsj7hb8N9O3bx+6dumsjKf/bsnl5TgMbG2lpiSz8NklTeqc9Yun30N/8tTpi8Rn/cuvKP18a0VlWKNPer2+bgRDo+X97TspLDykNrukxE8IAJa9AzeMklsG2kS5P1/2NyjeF9n2xQH5eCZfqPL/nYXle+UAI0FE/GbmDMVRKnlrYw6lbW4evH8yjqpqAHQ6DaPH3nPRwxlP+vbtQ9u2ZmU4cdmyuliM0tIy3t8u51Y4XW6mTM4Pu5s5dfJ9WCsqATBntmbOvIUtyokbXyEAWLhBfnNnXi0/wI5/R7fZzsrbrffCh6WXtQhotVoqK21YLBZKS8si2mJ9A2ZldeCevHFK33fT6281ieNQkmqjOr/SRvrLOTmDufYnP1YCuVJTkpk3/1lGjR7PuvWvcOTosUY9/JEy67ePYbXalAhU/wO7omAlGRl1jr+GkqTUZGV1YMrkfCU61ZzZmnfe3cZdg4axeMlSCgsPNUm9hEv8cg2CUWmBs1+r94aHPjFuMxIFxoJLtRLvb31HbVKPM2d806qHQVqaMaQ3OjD70OlyK+Gs4WK3O8i/N4/7p01RFymUBuQaWCttbNm8KejvGTZiNDqNFqlWUvICQhFprkGiQY/ky/iLFJ1Ox97dwYN9Ann4kZn84+szSr6H5MvY83q9OJ1Ounb5Kb179+TGG29otM8eDouXLOXPh4+QaNArw4OB+QTz5z4V8ro0xLr1r/DOu9suyqJ0Od04nU7atDFz2y/78bOf3cD13buFHJKMN00rBC2ESIUg3HkEGsv/jzUN2elyM3xYTshAFSIQgiNHj/HU7HmKXUM3cjRCEC2tEhJ4d8ub6t1BefOtt3ltwyYSExMxJOqVNF4ChME/f8SokcNDJvSEg91uZ8iwUZgzW4OvLvyC1/7K9qxeFX349pGjx1i2rABrpY2kpKR6108tcHfecRt5ueMjDkKKlPh3Df4DMBpTyUg3NbqlpaWFHejijCIN+fz57+PW7O3Vswddu3TGI3nJSDfx3LLn1SYxIUWZhlxRUZcK3Bh5uePYt/dDZj/5OL179sBaacNaaVOCuxINejLSTaSmJLP9g50MHDw8an+C0WjkvkkTFf+E/2G1Wm38esbDKuvI6NWzB++9u5kVyxYzaOAA8CUiOaqqqf3hBxINelJTkjFntqbo6DHyJkxqct9O87cI3C45g/DjzVBSFHwGoxrkBVD7TIJB42OekCTSFkH/Owfh8XhI8GUMqvE365wuN3fe8Usefij4kKY6DXnAgDtxuSIbUjUYDA2+1cJtEaBKhXW63AwaOCBotyPSFoFOp6H9le1ZsXxJxOdHQBZdNPinmdt/4CDFJ06SmJhYb7KZ899bWLRwXshzaIzAtHWP5KV3zx4hW4CxYLFY+EvREYqOHOXYsc/xeDykGlOUVo+jqppbbv5Fk/zfNHuLYN82eUjx9d9A+bfyqIIpyNYuW45H+Ms78Pit8hBkMy5ztmfXdj7at4t9ez+8aPvT/j/QpctPkWrlceFw8Kch+9NEI9kaEoFIMZvNTJmcj6OqmkSDnre3vNeosy5cNJrozs8YgwjgSy7KyRnMyueXK62F9le2V97kbduYmT1nQdTnOXPGI9TUyOLmsFfx0PQH1CZxwWyWoxMXLpjH3t0fsHrVCnr37IGlvAJ8w6f7D3wSdh5EpDSfEPy+ABblyQ+5IVOOQLSdlUcWgm22s/L3TNnw7VHIu6bZxMCf2x1s8+MPfb3cyMsdp7SMMjMzWBowPHa5I4/X92H1qgJyx49RPPSxnGegUEmSFLNwhUvnTp14ctYTrCxYWjcPRrqJ5QWr4tZdDKR5hOBEUd1S5y6bvKLx3J3wTil8XBl8e+0LuPMBWRAMJlk8nhipPrIgCp6ePUsZHjtd8mWLC26JB3m54xg6ZKAy7Hjy1BdRtwouJd27d+N3ixYoYpCcnMy+fX9Um8VM8wjBgjHyZKaSC37ST17WvNet8qQjekPwrcM1MH2ePGmp7awcXfjPIji4W330RglM+vBPEhkr/qw4nS5+Tffmonv3bkqkW0a6iUWLlzXJW+ZSEzgDUWpqKsePH1ebXBb06tmDzp2uRaqVSEoysP/AQbVJzDS9EJQUywFCGoP8d9HraouG6dZbXg+x+jt5ToLt69QWjRKYtulwOGK+6c+eLVX+nZp6eeYuPPHYTCXbTqvVNppt19yUlpaxes1a1q1/hdVr1kZVZ3q9Xgmx1mgTOHnqC7VJsxB4HtGudXHnHbcp0+x9+dU/1MUx0/RCcKKobvaiIbOiyxUYNqFuhqLPP1aXNsr/tGunxAVoNBrKyuoWoYiGc+f+hSZBg9fr5eqrstXFlwVGo5GZMx5SHIfvb98ZUSBVc7B12w5279nH1m07oq6zTp2uxeORSGjViuoIA7rihf88dny4h3/8PbqH+Ip27ZSEqOpq2REaT5peCL7/lzxhiVQFP+6qLg2PdLO8ECq+GYoidBoGBmMkJSVx6tSpeuWRUFx8QlnQw+PxcNVVV6lNLhtycgYrcfUZGSYWLFwEEHLYtDnx11miQU9ycjJfnD6tNgkLj8eNRptwSZ27N1zfDZ1OQ6oxhSPH/qouDgt3wLBsU9RP/I+oxiBPCAKAKwYlk3wTU0Qp6v4ZaHQ6DW+8Ff1cg1vf344hUY4wy0g3NXnEV1MTGFd//ryFwsJDLaa7c8P13ZR+8b59kbcEAb766msSWrVC8tbS/sor1cXNQo8eN+LxSEo6eDT5I9/+86yS9djGNyV6PGl6Icj6sfwQGzLhsyjHQEuK5a4BvhZBFNOkj7x7OA57VcTz0gVSXHyCw4ePoNNo8Xgkhg7NUZtcdnTu1Enuf/qn6Vq1NqaQ4XjSv/9tyvyQ0YxuWCwWTpd8qXTjOnRonrU01fxqwB1cuCD7Y1KNKaxZG/ksXh99vB+dTg5quuH6+E+G0/RC0LsfXPD17098GN1qRS89LTsKXTb41aPq0rDo3r0b7dv/D5Jv9ZiClWsiCj+1WCzMemouGb459mtqahg9aoTa7LLkoekP4LBHPhVYUzN40EDFt5ORbmL+M7+LaAjwhdVrSTXKIeDV1dX0uyX6uSpjwWw2c8stfZT5CPYf+IRdu/eozUKya/cezp+3oEnQ4HK6uTnKKMmGaHohSDdD/wnyQ2zKliMFIxGDZ6bB1wdlIbHaYFTkU5X5efaZ+coyV+bM1vx21tNh5YQXFh5i7PiJJCXJjk5LeQXz5z4V16i/S4nRaGTGo9OVaLyWxPy5T9ULqMm/b1qjLQO3283iJUs5duxzZS2BXw3o32zBQMEInBMxI93EioJVYeUP7Ny5ixUFq5QgsKQkQ9Th0g3RPLkGbhfcbZa7BxqDHBfQqT/0yambAVlN6RnYu1x2NBpM8nfGLYJ7G58RpiEKCw8xe84CZekpp8uN1+tl6JBBdO3yUzLNmeBLAf7qq7/z4c7d2O0OJf3VWmlj6JCBIfMLAvHnGvgz1tIDctkjwX7BztOzgy/uEUmuQWNMzJ+M3W5X4vTDzTVINOhplZDAtdf+r9okbHr36hlyAtDFS5by6Wd/VurA4VsY9I7+t3Nd1y7KEu7llnI+P36cPXs/UrIT/dl8297bHJVwFxefYNZTc0lNScZSXsGf9v9BbRI2Dd17P/vZDRiNsm8m1L13/nsL615aFZc0azXNIwQAZd/A/d3qHmzJVX8pMzV+O5BDjoc/GrcVlPwVkpmZodz0/krBNxrgXybdv4aeVCtRXm5l4oTcBtOCAwlMQ5Zqpag919aKSt58fUNQx2Q8heDMmW/Iv2+acqNGIgT48uqjweV0h1z+28/iJUvZf+ATpWsWmK7rry98MRH+3+Ov05fXrQl67cIhnkJAwEKo0dx7sSRPNUbTdw38dLhGXsD052PkB9tVLj/soTapSm4FSC54ZmvcRADfdFTb3ttMdlYWlvIKnC63PLyTkkxqSrKSyqrTafB4JKyVNoxGI6tWLg9bBABqapw4XW6cLjcej4TkrY1qawyPx4PT5cZud1BT41QXh03HjtcwcsRQJbXX6Wz4WG63PNmK/xzVvzvcLZy5H56c9QTz5z6F07fisccjKem6/vry15nT5eb89xauv/463t3yRtQi4Me/uEh1dZRDVgEMHjSQN1/fgNFoVK5zOPfextfWN5kI0KwtgkAqLXC8CL5tYHGQ1m3gJ93iNktRKEpLy/jk088oKjpaL/KstraWq6/O5qaf9+amn/eOatrycPqA4eB2uxk5YnjQN728puN29Ho9breb3PFjY+oLu91uNmzcpByvX7+bQzZFCwsP8VWUATJqunbtEvZ8/YWFh/is8BBHj/2V8nJrvXH17t260qPHjfS75eaYBQDf/bF7z17legRL246W0yUlfPLJZxz+SxHffntWOY/Ae6+h6x9PLo0QtGD8oazR9CcFl4b/lDq7lOchhEAgEDSjj0AgELRYhBAIBAIhBAKBQAiBQCAQQiAQCBBCIBAIEEIgEAgQQiAQCBBCIBAIEEIgEAgQQiAQCBBCIBAIAP4flJviRkgudecAAAAASUVORK5CYII=;" vertex="1" parent="1">
          <mxGeometry x="420" y="206.48" width="93" height="27.03" as="geometry" />
        </mxCell>
        <mxCell id="yQ1LGu9JGNTzou9qTPWQ-6" value=".wav" style="whiteSpace=wrap;html=1;shape=mxgraph.basic.document" vertex="1" parent="1">
          <mxGeometry x="220" y="200" width="40" height="55" as="geometry" />
        </mxCell>
        <mxCell id="yQ1LGu9JGNTzou9qTPWQ-7" style="edgeStyle=orthogonalEdgeStyle;rounded=0;orthogonalLoop=1;jettySize=auto;html=1;entryX=0.106;entryY=0.6;entryDx=0;entryDy=0;entryPerimeter=0;" edge="1" parent="1" source="yQ1LGu9JGNTzou9qTPWQ-6" target="yQ1LGu9JGNTzou9qTPWQ-4">
          <mxGeometry relative="1" as="geometry" />
        </mxCell>
        <mxCell id="yQ1LGu9JGNTzou9qTPWQ-8" value="Paso 2: Desarrollo Lambdas y DataAction en ambiente Dev" style="text;html=1;align=left;verticalAlign=middle;whiteSpace=wrap;rounded=0;fontStyle=1" vertex="1" parent="1">
          <mxGeometry x="30" y="310" width="560" height="30" as="geometry" />
        </mxCell>
        <mxCell id="yQ1LGu9JGNTzou9qTPWQ-16" style="edgeStyle=orthogonalEdgeStyle;rounded=0;orthogonalLoop=1;jettySize=auto;html=1;entryX=1;entryY=0.5;entryDx=0;entryDy=0;" edge="1" parent="1" source="yQ1LGu9JGNTzou9qTPWQ-11" target="yQ1LGu9JGNTzou9qTPWQ-12">
          <mxGeometry relative="1" as="geometry" />
        </mxCell>
        <mxCell id="yQ1LGu9JGNTzou9qTPWQ-11" value="Genesys_desa" style="points=[[0,0],[0.25,0],[0.5,0],[0.75,0],[1,0],[1,0.25],[1,0.5],[1,0.75],[1,1],[0.75,1],[0.5,1],[0.25,1],[0,1],[0,0.75],[0,0.5],[0,0.25]];outlineConnect=0;gradientColor=none;html=1;whiteSpace=wrap;fontSize=12;fontStyle=0;container=1;pointerEvents=0;collapsible=0;recursiveResize=0;shape=mxgraph.aws4.group;grIcon=mxgraph.aws4.group_account;strokeColor=#CD2264;fillColor=none;verticalAlign=top;align=left;spacingLeft=30;fontColor=#CD2264;dashed=0;" vertex="1" parent="1">
          <mxGeometry x="510" y="390" width="130" height="130" as="geometry" />
        </mxCell>
        <mxCell id="yQ1LGu9JGNTzou9qTPWQ-10" value="Nuevo Lambda Dev" style="outlineConnect=0;dashed=0;verticalLabelPosition=bottom;verticalAlign=top;align=center;html=1;shape=mxgraph.aws3.lambda_function;fillColor=#F58534;gradientColor=none;" vertex="1" parent="yQ1LGu9JGNTzou9qTPWQ-11">
          <mxGeometry x="45.5" y="40" width="39" height="40" as="geometry" />
        </mxCell>
        <mxCell id="yQ1LGu9JGNTzou9qTPWQ-14" value="" style="swimlane;startSize=0;" vertex="1" parent="1">
          <mxGeometry x="110" y="380" width="210" height="150" as="geometry">
            <mxRectangle x="130" y="520" width="50" height="40" as="alternateBounds" />
          </mxGeometry>
        </mxCell>
        <mxCell id="yQ1LGu9JGNTzou9qTPWQ-15" value="&lt;b&gt;Genesys Division Desarrollo&lt;/b&gt;" style="text;html=1;align=left;verticalAlign=middle;resizable=0;points=[];autosize=1;strokeColor=#6c8ebf;fillColor=#dae8fc;" vertex="1" parent="yQ1LGu9JGNTzou9qTPWQ-14">
          <mxGeometry x="10" width="190" height="30" as="geometry" />
        </mxCell>
        <mxCell id="yQ1LGu9JGNTzou9qTPWQ-12" value="Nuevo DataAction" style="shape=process;whiteSpace=wrap;html=1;backgroundOutline=1;fillColor=#fff2cc;strokeColor=#d6b656;" vertex="1" parent="yQ1LGu9JGNTzou9qTPWQ-14">
          <mxGeometry x="45" y="45" width="120" height="60" as="geometry" />
        </mxCell>
        <mxCell id="yQ1LGu9JGNTzou9qTPWQ-17" value="Paso 3: Desarrollo Flujo Architect en Genesys Cloud" style="text;html=1;align=left;verticalAlign=middle;whiteSpace=wrap;rounded=0;fontStyle=1" vertex="1" parent="1">
          <mxGeometry x="30" y="570" width="560" height="30" as="geometry" />
        </mxCell>
        <mxCell id="yQ1LGu9JGNTzou9qTPWQ-18" value="Flow Division Desarrollo Genesys Cloud" style="swimlane;startSize=20;horizontal=1;childLayout=treeLayout;horizontalTree=0;sortEdges=1;resizable=0;containerType=tree;fontSize=12;fillColor=#dae8fc;strokeColor=#6c8ebf;" vertex="1" parent="1">
          <mxGeometry x="440" y="650" width="280" height="190" as="geometry" />
        </mxCell>
        <mxCell id="yQ1LGu9JGNTzou9qTPWQ-19" value="Flow Dev" style="whiteSpace=wrap;html=1;" vertex="1" parent="yQ1LGu9JGNTzou9qTPWQ-18">
          <mxGeometry x="90" y="40" width="100" height="40" as="geometry" />
        </mxCell>
        <mxCell id="yQ1LGu9JGNTzou9qTPWQ-20" value="New DataAction Dev" style="whiteSpace=wrap;html=1;fillColor=#fff2cc;strokeColor=#d6b656;" vertex="1" parent="yQ1LGu9JGNTzou9qTPWQ-18">
          <mxGeometry x="20" y="130" width="100" height="40" as="geometry" />
        </mxCell>
        <mxCell id="yQ1LGu9JGNTzou9qTPWQ-21" value="" style="edgeStyle=elbowEdgeStyle;elbow=vertical;html=1;rounded=1;curved=0;sourcePerimeterSpacing=0;targetPerimeterSpacing=0;startSize=6;endSize=6;" edge="1" parent="yQ1LGu9JGNTzou9qTPWQ-18" source="yQ1LGu9JGNTzou9qTPWQ-19" target="yQ1LGu9JGNTzou9qTPWQ-20">
          <mxGeometry relative="1" as="geometry" />
        </mxCell>
        <mxCell id="yQ1LGu9JGNTzou9qTPWQ-22" value="Audio Transversal" style="whiteSpace=wrap;html=1;" vertex="1" parent="yQ1LGu9JGNTzou9qTPWQ-18">
          <mxGeometry x="160" y="130" width="100" height="40" as="geometry" />
        </mxCell>
        <mxCell id="yQ1LGu9JGNTzou9qTPWQ-23" value="" style="edgeStyle=elbowEdgeStyle;elbow=vertical;html=1;rounded=1;curved=0;sourcePerimeterSpacing=0;targetPerimeterSpacing=0;startSize=6;endSize=6;" edge="1" parent="yQ1LGu9JGNTzou9qTPWQ-18" source="yQ1LGu9JGNTzou9qTPWQ-19" target="yQ1LGu9JGNTzou9qTPWQ-22">
          <mxGeometry relative="1" as="geometry" />
        </mxCell>
        <mxCell id="yQ1LGu9JGNTzou9qTPWQ-28" style="edgeStyle=orthogonalEdgeStyle;rounded=0;orthogonalLoop=1;jettySize=auto;html=1;entryX=0;entryY=0.5;entryDx=0;entryDy=0;" edge="1" parent="1" source="yQ1LGu9JGNTzou9qTPWQ-24" target="yQ1LGu9JGNTzou9qTPWQ-18">
          <mxGeometry relative="1" as="geometry" />
        </mxCell>
        <mxCell id="yQ1LGu9JGNTzou9qTPWQ-24" value="" style="swimlane;startSize=0;" vertex="1" parent="1">
          <mxGeometry x="90" y="760" width="210" height="150" as="geometry">
            <mxRectangle x="130" y="520" width="50" height="40" as="alternateBounds" />
          </mxGeometry>
        </mxCell>
        <mxCell id="yQ1LGu9JGNTzou9qTPWQ-25" value="&lt;b&gt;Genesys Division Desarrollo&lt;/b&gt;" style="text;html=1;align=left;verticalAlign=middle;resizable=0;points=[];autosize=1;strokeColor=#6c8ebf;fillColor=#dae8fc;" vertex="1" parent="yQ1LGu9JGNTzou9qTPWQ-24">
          <mxGeometry x="10" width="190" height="30" as="geometry" />
        </mxCell>
        <mxCell id="yQ1LGu9JGNTzou9qTPWQ-26" value="Nuevo DataAction Dev" style="shape=process;whiteSpace=wrap;html=1;backgroundOutline=1;fillColor=#fff2cc;strokeColor=#d6b656;" vertex="1" parent="yQ1LGu9JGNTzou9qTPWQ-24">
          <mxGeometry x="45" y="45" width="120" height="60" as="geometry" />
        </mxCell>
        <mxCell id="yQ1LGu9JGNTzou9qTPWQ-29" style="edgeStyle=orthogonalEdgeStyle;rounded=0;orthogonalLoop=1;jettySize=auto;html=1;entryX=0;entryY=0.5;entryDx=0;entryDy=0;" edge="1" parent="1" source="yQ1LGu9JGNTzou9qTPWQ-27" target="yQ1LGu9JGNTzou9qTPWQ-18">
          <mxGeometry relative="1" as="geometry">
            <Array as="points">
              <mxPoint x="370" y="660" />
              <mxPoint x="370" y="745" />
            </Array>
          </mxGeometry>
        </mxCell>
        <mxCell id="yQ1LGu9JGNTzou9qTPWQ-27" value="Audios Genesys Cloud&lt;br&gt;Transversales" style="ellipse;shape=cloud;whiteSpace=wrap;html=1;fillColor=#f5f5f5;fontColor=#333333;strokeColor=#666666;" vertex="1" parent="1">
          <mxGeometry x="100" y="620" width="180" height="80" as="geometry" />
        </mxCell>
        <mxCell id="yQ1LGu9JGNTzou9qTPWQ-30" value="Paso 4: Paso del Desarrollo a QA" style="text;html=1;align=left;verticalAlign=middle;whiteSpace=wrap;rounded=0;fontStyle=1" vertex="1" parent="1">
          <mxGeometry x="40" y="950" width="560" height="30" as="geometry" />
        </mxCell>
        <mxCell id="yQ1LGu9JGNTzou9qTPWQ-35" style="edgeStyle=orthogonalEdgeStyle;rounded=0;orthogonalLoop=1;jettySize=auto;html=1;entryX=0;entryY=0.5;entryDx=0;entryDy=0;" edge="1" parent="1" source="yQ1LGu9JGNTzou9qTPWQ-31" target="yQ1LGu9JGNTzou9qTPWQ-33">
          <mxGeometry relative="1" as="geometry" />
        </mxCell>
        <mxCell id="yQ1LGu9JGNTzou9qTPWQ-36" value="PIPELINE" style="edgeLabel;html=1;align=center;verticalAlign=middle;resizable=0;points=[];" vertex="1" connectable="0" parent="yQ1LGu9JGNTzou9qTPWQ-35">
          <mxGeometry x="-0.16" y="-3" relative="1" as="geometry">
            <mxPoint as="offset" />
          </mxGeometry>
        </mxCell>
        <mxCell id="yQ1LGu9JGNTzou9qTPWQ-31" value="Genesys_desa" style="points=[[0,0],[0.25,0],[0.5,0],[0.75,0],[1,0],[1,0.25],[1,0.5],[1,0.75],[1,1],[0.75,1],[0.5,1],[0.25,1],[0,1],[0,0.75],[0,0.5],[0,0.25]];outlineConnect=0;gradientColor=none;html=1;whiteSpace=wrap;fontSize=12;fontStyle=0;container=1;pointerEvents=0;collapsible=0;recursiveResize=0;shape=mxgraph.aws4.group;grIcon=mxgraph.aws4.group_account;strokeColor=#CD2264;fillColor=none;verticalAlign=top;align=left;spacingLeft=30;fontColor=#CD2264;dashed=0;" vertex="1" parent="1">
          <mxGeometry x="150" y="1010" width="130" height="130" as="geometry" />
        </mxCell>
        <mxCell id="yQ1LGu9JGNTzou9qTPWQ-32" value="Nuevo Lambda Dev" style="outlineConnect=0;dashed=0;verticalLabelPosition=bottom;verticalAlign=top;align=center;html=1;shape=mxgraph.aws3.lambda_function;fillColor=#F58534;gradientColor=none;" vertex="1" parent="yQ1LGu9JGNTzou9qTPWQ-31">
          <mxGeometry x="45.5" y="40" width="39" height="40" as="geometry" />
        </mxCell>
        <mxCell id="yQ1LGu9JGNTzou9qTPWQ-33" value="CallCenter_test" style="points=[[0,0],[0.25,0],[0.5,0],[0.75,0],[1,0],[1,0.25],[1,0.5],[1,0.75],[1,1],[0.75,1],[0.5,1],[0.25,1],[0,1],[0,0.75],[0,0.5],[0,0.25]];outlineConnect=0;gradientColor=none;html=1;whiteSpace=wrap;fontSize=12;fontStyle=0;container=1;pointerEvents=0;collapsible=0;recursiveResize=0;shape=mxgraph.aws4.group;grIcon=mxgraph.aws4.group_account;strokeColor=#CD2264;fillColor=none;verticalAlign=top;align=left;spacingLeft=30;fontColor=#CD2264;dashed=0;" vertex="1" parent="1">
          <mxGeometry x="525" y="1010" width="130" height="130" as="geometry" />
        </mxCell>
        <mxCell id="yQ1LGu9JGNTzou9qTPWQ-34" value="Nuevo Lambda QA" style="outlineConnect=0;dashed=0;verticalLabelPosition=bottom;verticalAlign=top;align=center;html=1;shape=mxgraph.aws3.lambda_function;fillColor=#F58534;gradientColor=none;" vertex="1" parent="yQ1LGu9JGNTzou9qTPWQ-33">
          <mxGeometry x="45.5" y="40" width="39" height="40" as="geometry" />
        </mxCell>
        <mxCell id="yQ1LGu9JGNTzou9qTPWQ-45" style="edgeStyle=orthogonalEdgeStyle;rounded=0;orthogonalLoop=1;jettySize=auto;html=1;" edge="1" parent="1" source="yQ1LGu9JGNTzou9qTPWQ-37" target="yQ1LGu9JGNTzou9qTPWQ-41">
          <mxGeometry relative="1" as="geometry" />
        </mxCell>
        <mxCell id="yQ1LGu9JGNTzou9qTPWQ-46" value="EXPORTACION /&lt;br&gt;IMPORTACION" style="edgeLabel;html=1;align=center;verticalAlign=middle;resizable=0;points=[];" vertex="1" connectable="0" parent="yQ1LGu9JGNTzou9qTPWQ-45">
          <mxGeometry x="0.1579" y="-3" relative="1" as="geometry">
            <mxPoint as="offset" />
          </mxGeometry>
        </mxCell>
        <mxCell id="yQ1LGu9JGNTzou9qTPWQ-37" value="" style="swimlane;startSize=0;" vertex="1" parent="1">
          <mxGeometry x="110" y="1200" width="210" height="150" as="geometry">
            <mxRectangle x="130" y="520" width="50" height="40" as="alternateBounds" />
          </mxGeometry>
        </mxCell>
        <mxCell id="yQ1LGu9JGNTzou9qTPWQ-38" value="&lt;b&gt;Genesys Division Desarrollo&lt;/b&gt;" style="text;html=1;align=left;verticalAlign=middle;resizable=0;points=[];autosize=1;strokeColor=#6c8ebf;fillColor=#dae8fc;" vertex="1" parent="yQ1LGu9JGNTzou9qTPWQ-37">
          <mxGeometry x="10" width="190" height="30" as="geometry" />
        </mxCell>
        <mxCell id="yQ1LGu9JGNTzou9qTPWQ-39" value="Nuevo DataAction Dev" style="shape=process;whiteSpace=wrap;html=1;backgroundOutline=1;fillColor=#fff2cc;strokeColor=#d6b656;" vertex="1" parent="yQ1LGu9JGNTzou9qTPWQ-37">
          <mxGeometry x="45" y="45" width="120" height="60" as="geometry" />
        </mxCell>
        <mxCell id="yQ1LGu9JGNTzou9qTPWQ-40" style="edgeStyle=orthogonalEdgeStyle;rounded=0;orthogonalLoop=1;jettySize=auto;html=1;" edge="1" parent="1" source="yQ1LGu9JGNTzou9qTPWQ-38" target="yQ1LGu9JGNTzou9qTPWQ-31">
          <mxGeometry relative="1" as="geometry" />
        </mxCell>
        <mxCell id="yQ1LGu9JGNTzou9qTPWQ-41" value="" style="swimlane;startSize=0;" vertex="1" parent="1">
          <mxGeometry x="510" y="1200" width="210" height="150" as="geometry">
            <mxRectangle x="130" y="520" width="50" height="40" as="alternateBounds" />
          </mxGeometry>
        </mxCell>
        <mxCell id="yQ1LGu9JGNTzou9qTPWQ-42" value="&lt;b&gt;Genesys Division QA&lt;/b&gt;" style="text;html=1;align=left;verticalAlign=middle;resizable=0;points=[];autosize=1;strokeColor=#6c8ebf;fillColor=#dae8fc;" vertex="1" parent="yQ1LGu9JGNTzou9qTPWQ-41">
          <mxGeometry x="10" width="140" height="30" as="geometry" />
        </mxCell>
        <mxCell id="yQ1LGu9JGNTzou9qTPWQ-43" value="Nuevo DataAction QA" style="shape=process;whiteSpace=wrap;html=1;backgroundOutline=1;fillColor=#f8cecc;strokeColor=#b85450;" vertex="1" parent="yQ1LGu9JGNTzou9qTPWQ-41">
          <mxGeometry x="45" y="45" width="120" height="60" as="geometry" />
        </mxCell>
        <mxCell id="yQ1LGu9JGNTzou9qTPWQ-44" style="edgeStyle=orthogonalEdgeStyle;rounded=0;orthogonalLoop=1;jettySize=auto;html=1;entryX=0.5;entryY=1;entryDx=0;entryDy=0;" edge="1" parent="1" source="yQ1LGu9JGNTzou9qTPWQ-42" target="yQ1LGu9JGNTzou9qTPWQ-33">
          <mxGeometry relative="1" as="geometry" />
        </mxCell>
        <mxCell id="yQ1LGu9JGNTzou9qTPWQ-59" style="edgeStyle=orthogonalEdgeStyle;rounded=0;orthogonalLoop=1;jettySize=auto;html=1;entryX=0;entryY=0.5;entryDx=0;entryDy=0;" edge="1" parent="1" source="yQ1LGu9JGNTzou9qTPWQ-47" target="yQ1LGu9JGNTzou9qTPWQ-53">
          <mxGeometry relative="1" as="geometry" />
        </mxCell>
        <mxCell id="yQ1LGu9JGNTzou9qTPWQ-60" value="&lt;span style=&quot;color: rgba(0, 0, 0, 0); font-family: monospace; font-size: 0px; text-align: start; background-color: rgb(236, 236, 236);&quot;&gt;%3CmxGraphModel%3E%3Croot%3E%3CmxCell%20id%3D%220%22%2F%3E%3CmxCell%20id%3D%221%22%20parent%3D%220%22%2F%3E%3CmxCell%20id%3D%222%22%20value%3D%22EXPORTACION%20%2F%26lt%3Bbr%26gt%3BIMPORTACION%22%20style%3D%22edgeLabel%3Bhtml%3D1%3Balign%3Dcenter%3BverticalAlign%3Dmiddle%3Bresizable%3D0%3Bpoints%3D%5B%5D%3B%22%20vertex%3D%221%22%20connectable%3D%220%22%20parent%3D%221%22%3E%3CmxGeometry%20x%3D%22430%22%20y%3D%221278%22%20as%3D%22geometry%22%2F%3E%3C%2FmxCell%3E%3C%2Froot%3E%3C%2FmxGraphModel%3E&lt;/span&gt;" style="edgeLabel;html=1;align=center;verticalAlign=middle;resizable=0;points=[];" vertex="1" connectable="0" parent="yQ1LGu9JGNTzou9qTPWQ-59">
          <mxGeometry x="0.06" y="-2" relative="1" as="geometry">
            <mxPoint as="offset" />
          </mxGeometry>
        </mxCell>
        <mxCell id="yQ1LGu9JGNTzou9qTPWQ-61" value="EXPORTACION /&lt;br&gt;IMPORTACION" style="edgeLabel;html=1;align=center;verticalAlign=middle;resizable=0;points=[];" vertex="1" connectable="0" parent="yQ1LGu9JGNTzou9qTPWQ-59">
          <mxGeometry x="0.1" y="-3" relative="1" as="geometry">
            <mxPoint as="offset" />
          </mxGeometry>
        </mxCell>
        <mxCell id="yQ1LGu9JGNTzou9qTPWQ-47" value="Flow Division Desarrollo Genesys Cloud" style="swimlane;startSize=20;horizontal=1;childLayout=treeLayout;horizontalTree=0;sortEdges=1;resizable=0;containerType=tree;fontSize=12;fillColor=#dae8fc;strokeColor=#6c8ebf;" vertex="1" parent="1">
          <mxGeometry x="57" y="1420" width="280" height="190" as="geometry" />
        </mxCell>
        <mxCell id="yQ1LGu9JGNTzou9qTPWQ-48" value="Flow Dev" style="whiteSpace=wrap;html=1;" vertex="1" parent="yQ1LGu9JGNTzou9qTPWQ-47">
          <mxGeometry x="90" y="40" width="100" height="40" as="geometry" />
        </mxCell>
        <mxCell id="yQ1LGu9JGNTzou9qTPWQ-49" value="New DataAction Dev" style="whiteSpace=wrap;html=1;fillColor=#fff2cc;strokeColor=#d6b656;" vertex="1" parent="yQ1LGu9JGNTzou9qTPWQ-47">
          <mxGeometry x="20" y="130" width="100" height="40" as="geometry" />
        </mxCell>
        <mxCell id="yQ1LGu9JGNTzou9qTPWQ-50" value="" style="edgeStyle=elbowEdgeStyle;elbow=vertical;html=1;rounded=1;curved=0;sourcePerimeterSpacing=0;targetPerimeterSpacing=0;startSize=6;endSize=6;" edge="1" parent="yQ1LGu9JGNTzou9qTPWQ-47" source="yQ1LGu9JGNTzou9qTPWQ-48" target="yQ1LGu9JGNTzou9qTPWQ-49">
          <mxGeometry relative="1" as="geometry" />
        </mxCell>
        <mxCell id="yQ1LGu9JGNTzou9qTPWQ-51" value="Audio Transversal" style="whiteSpace=wrap;html=1;" vertex="1" parent="yQ1LGu9JGNTzou9qTPWQ-47">
          <mxGeometry x="160" y="130" width="100" height="40" as="geometry" />
        </mxCell>
        <mxCell id="yQ1LGu9JGNTzou9qTPWQ-52" value="" style="edgeStyle=elbowEdgeStyle;elbow=vertical;html=1;rounded=1;curved=0;sourcePerimeterSpacing=0;targetPerimeterSpacing=0;startSize=6;endSize=6;" edge="1" parent="yQ1LGu9JGNTzou9qTPWQ-47" source="yQ1LGu9JGNTzou9qTPWQ-48" target="yQ1LGu9JGNTzou9qTPWQ-51">
          <mxGeometry relative="1" as="geometry" />
        </mxCell>
        <mxCell id="yQ1LGu9JGNTzou9qTPWQ-53" value="Flow Division QA Genesys Cloud" style="swimlane;startSize=20;horizontal=1;childLayout=treeLayout;horizontalTree=0;sortEdges=1;resizable=0;containerType=tree;fontSize=12;fillColor=#dae8fc;strokeColor=#6c8ebf;" vertex="1" parent="1">
          <mxGeometry x="481" y="1420" width="280" height="190" as="geometry" />
        </mxCell>
        <mxCell id="yQ1LGu9JGNTzou9qTPWQ-54" value="Flow QA" style="whiteSpace=wrap;html=1;" vertex="1" parent="yQ1LGu9JGNTzou9qTPWQ-53">
          <mxGeometry x="90" y="40" width="100" height="40" as="geometry" />
        </mxCell>
        <mxCell id="yQ1LGu9JGNTzou9qTPWQ-55" value="New DataAction Dev" style="whiteSpace=wrap;html=1;fillColor=#fff2cc;strokeColor=#d6b656;" vertex="1" parent="yQ1LGu9JGNTzou9qTPWQ-53">
          <mxGeometry x="20" y="130" width="100" height="40" as="geometry" />
        </mxCell>
        <mxCell id="yQ1LGu9JGNTzou9qTPWQ-56" value="" style="edgeStyle=elbowEdgeStyle;elbow=vertical;html=1;rounded=1;curved=0;sourcePerimeterSpacing=0;targetPerimeterSpacing=0;startSize=6;endSize=6;" edge="1" parent="yQ1LGu9JGNTzou9qTPWQ-53" source="yQ1LGu9JGNTzou9qTPWQ-54" target="yQ1LGu9JGNTzou9qTPWQ-55">
          <mxGeometry relative="1" as="geometry" />
        </mxCell>
        <mxCell id="yQ1LGu9JGNTzou9qTPWQ-57" value="Audio Transversal" style="whiteSpace=wrap;html=1;" vertex="1" parent="yQ1LGu9JGNTzou9qTPWQ-53">
          <mxGeometry x="160" y="130" width="100" height="40" as="geometry" />
        </mxCell>
        <mxCell id="yQ1LGu9JGNTzou9qTPWQ-58" value="" style="edgeStyle=elbowEdgeStyle;elbow=vertical;html=1;rounded=1;curved=0;sourcePerimeterSpacing=0;targetPerimeterSpacing=0;startSize=6;endSize=6;" edge="1" parent="yQ1LGu9JGNTzou9qTPWQ-53" source="yQ1LGu9JGNTzou9qTPWQ-54" target="yQ1LGu9JGNTzou9qTPWQ-57">
          <mxGeometry relative="1" as="geometry" />
        </mxCell>
        <mxCell id="yQ1LGu9JGNTzou9qTPWQ-62" value="Ajuste en Flujo QA para apuntar a DataActions QA" style="text;html=1;align=center;verticalAlign=middle;whiteSpace=wrap;rounded=0;" vertex="1" parent="1">
          <mxGeometry x="83.5" y="1670" width="313" height="30" as="geometry" />
        </mxCell>
        <mxCell id="yQ1LGu9JGNTzou9qTPWQ-63" value="Flow Division QA Genesys Cloud" style="swimlane;startSize=20;horizontal=1;childLayout=treeLayout;horizontalTree=0;sortEdges=1;resizable=0;containerType=tree;fontSize=12;fillColor=#dae8fc;strokeColor=#6c8ebf;" vertex="1" parent="1">
          <mxGeometry x="100" y="1730" width="280" height="190" as="geometry" />
        </mxCell>
        <mxCell id="yQ1LGu9JGNTzou9qTPWQ-64" value="Flow QA" style="whiteSpace=wrap;html=1;" vertex="1" parent="yQ1LGu9JGNTzou9qTPWQ-63">
          <mxGeometry x="90" y="40" width="100" height="40" as="geometry" />
        </mxCell>
        <mxCell id="yQ1LGu9JGNTzou9qTPWQ-65" value="New DataAction QA" style="whiteSpace=wrap;html=1;fillColor=#f8cecc;strokeColor=#b85450;" vertex="1" parent="yQ1LGu9JGNTzou9qTPWQ-63">
          <mxGeometry x="20" y="130" width="100" height="40" as="geometry" />
        </mxCell>
        <mxCell id="yQ1LGu9JGNTzou9qTPWQ-66" value="" style="edgeStyle=elbowEdgeStyle;elbow=vertical;html=1;rounded=1;curved=0;sourcePerimeterSpacing=0;targetPerimeterSpacing=0;startSize=6;endSize=6;" edge="1" parent="yQ1LGu9JGNTzou9qTPWQ-63" source="yQ1LGu9JGNTzou9qTPWQ-64" target="yQ1LGu9JGNTzou9qTPWQ-65">
          <mxGeometry relative="1" as="geometry" />
        </mxCell>
        <mxCell id="yQ1LGu9JGNTzou9qTPWQ-67" value="Audio Transversal" style="whiteSpace=wrap;html=1;" vertex="1" parent="yQ1LGu9JGNTzou9qTPWQ-63">
          <mxGeometry x="160" y="130" width="100" height="40" as="geometry" />
        </mxCell>
        <mxCell id="yQ1LGu9JGNTzou9qTPWQ-68" value="" style="edgeStyle=elbowEdgeStyle;elbow=vertical;html=1;rounded=1;curved=0;sourcePerimeterSpacing=0;targetPerimeterSpacing=0;startSize=6;endSize=6;" edge="1" parent="yQ1LGu9JGNTzou9qTPWQ-63" source="yQ1LGu9JGNTzou9qTPWQ-64" target="yQ1LGu9JGNTzou9qTPWQ-67">
          <mxGeometry relative="1" as="geometry" />
        </mxCell>
        <mxCell id="yQ1LGu9JGNTzou9qTPWQ-72" style="edgeStyle=orthogonalEdgeStyle;rounded=0;orthogonalLoop=1;jettySize=auto;html=1;" edge="1" parent="1" source="yQ1LGu9JGNTzou9qTPWQ-69">
          <mxGeometry relative="1" as="geometry">
            <mxPoint x="380" y="1821" as="targetPoint" />
          </mxGeometry>
        </mxCell>
        <mxCell id="yQ1LGu9JGNTzou9qTPWQ-73" value="Ajuste Manual&amp;nbsp;&lt;div&gt;&quot;Desarrollo&quot;&lt;/div&gt;" style="edgeLabel;html=1;align=center;verticalAlign=middle;resizable=0;points=[];" vertex="1" connectable="0" parent="yQ1LGu9JGNTzou9qTPWQ-72">
          <mxGeometry x="-0.0107" y="-2" relative="1" as="geometry">
            <mxPoint x="-2" as="offset" />
          </mxGeometry>
        </mxCell>
        <mxCell id="yQ1LGu9JGNTzou9qTPWQ-69" value="" style="swimlane;startSize=0;" vertex="1" parent="1">
          <mxGeometry x="520" y="1746" width="210" height="150" as="geometry">
            <mxRectangle x="130" y="520" width="50" height="40" as="alternateBounds" />
          </mxGeometry>
        </mxCell>
        <mxCell id="yQ1LGu9JGNTzou9qTPWQ-70" value="&lt;b&gt;Genesys Division QA&lt;/b&gt;" style="text;html=1;align=left;verticalAlign=middle;resizable=0;points=[];autosize=1;strokeColor=#6c8ebf;fillColor=#dae8fc;" vertex="1" parent="yQ1LGu9JGNTzou9qTPWQ-69">
          <mxGeometry x="10" width="140" height="30" as="geometry" />
        </mxCell>
        <mxCell id="yQ1LGu9JGNTzou9qTPWQ-71" value="Nuevo DataAction QA" style="shape=process;whiteSpace=wrap;html=1;backgroundOutline=1;fillColor=#f8cecc;strokeColor=#b85450;" vertex="1" parent="yQ1LGu9JGNTzou9qTPWQ-69">
          <mxGeometry x="45" y="45" width="120" height="60" as="geometry" />
        </mxCell>
        <mxCell id="yQ1LGu9JGNTzou9qTPWQ-74" value="Paso 4: Paso de QA a Prod" style="text;html=1;align=left;verticalAlign=middle;whiteSpace=wrap;rounded=0;fontStyle=1" vertex="1" parent="1">
          <mxGeometry x="50" y="1970" width="560" height="30" as="geometry" />
        </mxCell>
        <mxCell id="yQ1LGu9JGNTzou9qTPWQ-75" style="edgeStyle=orthogonalEdgeStyle;rounded=0;orthogonalLoop=1;jettySize=auto;html=1;entryX=0;entryY=0.5;entryDx=0;entryDy=0;" edge="1" parent="1" source="yQ1LGu9JGNTzou9qTPWQ-77" target="yQ1LGu9JGNTzou9qTPWQ-79">
          <mxGeometry relative="1" as="geometry" />
        </mxCell>
        <mxCell id="yQ1LGu9JGNTzou9qTPWQ-76" value="PASO A PRODUCCIÖN&amp;nbsp;&lt;div&gt;MIDDLEWARE&lt;/div&gt;" style="edgeLabel;html=1;align=center;verticalAlign=middle;resizable=0;points=[];" vertex="1" connectable="0" parent="yQ1LGu9JGNTzou9qTPWQ-75">
          <mxGeometry x="-0.16" y="-3" relative="1" as="geometry">
            <mxPoint as="offset" />
          </mxGeometry>
        </mxCell>
        <mxCell id="yQ1LGu9JGNTzou9qTPWQ-77" value="CallCenter_test" style="points=[[0,0],[0.25,0],[0.5,0],[0.75,0],[1,0],[1,0.25],[1,0.5],[1,0.75],[1,1],[0.75,1],[0.5,1],[0.25,1],[0,1],[0,0.75],[0,0.5],[0,0.25]];outlineConnect=0;gradientColor=none;html=1;whiteSpace=wrap;fontSize=12;fontStyle=0;container=1;pointerEvents=0;collapsible=0;recursiveResize=0;shape=mxgraph.aws4.group;grIcon=mxgraph.aws4.group_account;strokeColor=#CD2264;fillColor=none;verticalAlign=top;align=left;spacingLeft=30;fontColor=#CD2264;dashed=0;" vertex="1" parent="1">
          <mxGeometry x="140" y="2048" width="130" height="130" as="geometry" />
        </mxCell>
        <mxCell id="yQ1LGu9JGNTzou9qTPWQ-78" value="Nuevo Lambda QA" style="outlineConnect=0;dashed=0;verticalLabelPosition=bottom;verticalAlign=top;align=center;html=1;shape=mxgraph.aws3.lambda_function;fillColor=#F58534;gradientColor=none;" vertex="1" parent="yQ1LGu9JGNTzou9qTPWQ-77">
          <mxGeometry x="45.5" y="40" width="39" height="40" as="geometry" />
        </mxCell>
        <mxCell id="yQ1LGu9JGNTzou9qTPWQ-79" value="CallCenter_prod" style="points=[[0,0],[0.25,0],[0.5,0],[0.75,0],[1,0],[1,0.25],[1,0.5],[1,0.75],[1,1],[0.75,1],[0.5,1],[0.25,1],[0,1],[0,0.75],[0,0.5],[0,0.25]];outlineConnect=0;gradientColor=none;html=1;whiteSpace=wrap;fontSize=12;fontStyle=0;container=1;pointerEvents=0;collapsible=0;recursiveResize=0;shape=mxgraph.aws4.group;grIcon=mxgraph.aws4.group_account;strokeColor=#CD2264;fillColor=none;verticalAlign=top;align=left;spacingLeft=30;fontColor=#CD2264;dashed=0;" vertex="1" parent="1">
          <mxGeometry x="515" y="2048" width="130" height="130" as="geometry" />
        </mxCell>
        <mxCell id="yQ1LGu9JGNTzou9qTPWQ-80" value="Nuevo Lambda Prod" style="outlineConnect=0;dashed=0;verticalLabelPosition=bottom;verticalAlign=top;align=center;html=1;shape=mxgraph.aws3.lambda_function;fillColor=#F58534;gradientColor=none;" vertex="1" parent="yQ1LGu9JGNTzou9qTPWQ-79">
          <mxGeometry x="45.5" y="40" width="39" height="40" as="geometry" />
        </mxCell>
        <mxCell id="yQ1LGu9JGNTzou9qTPWQ-81" style="edgeStyle=orthogonalEdgeStyle;rounded=0;orthogonalLoop=1;jettySize=auto;html=1;" edge="1" parent="1" source="yQ1LGu9JGNTzou9qTPWQ-83" target="yQ1LGu9JGNTzou9qTPWQ-86">
          <mxGeometry relative="1" as="geometry" />
        </mxCell>
        <mxCell id="yQ1LGu9JGNTzou9qTPWQ-82" value="EXPORTACION /&lt;br&gt;IMPORTACION" style="edgeLabel;html=1;align=center;verticalAlign=middle;resizable=0;points=[];" vertex="1" connectable="0" parent="yQ1LGu9JGNTzou9qTPWQ-81">
          <mxGeometry x="0.1579" y="-3" relative="1" as="geometry">
            <mxPoint as="offset" />
          </mxGeometry>
        </mxCell>
        <mxCell id="yQ1LGu9JGNTzou9qTPWQ-83" value="" style="swimlane;startSize=0;" vertex="1" parent="1">
          <mxGeometry x="90" y="2242" width="210" height="150" as="geometry">
            <mxRectangle x="130" y="520" width="50" height="40" as="alternateBounds" />
          </mxGeometry>
        </mxCell>
        <mxCell id="yQ1LGu9JGNTzou9qTPWQ-84" value="&lt;b&gt;Genesys Division QA&lt;/b&gt;" style="text;html=1;align=left;verticalAlign=middle;resizable=0;points=[];autosize=1;strokeColor=#6c8ebf;fillColor=#dae8fc;" vertex="1" parent="yQ1LGu9JGNTzou9qTPWQ-83">
          <mxGeometry x="10" width="140" height="30" as="geometry" />
        </mxCell>
        <mxCell id="yQ1LGu9JGNTzou9qTPWQ-85" value="Nuevo DataAction QA" style="shape=process;whiteSpace=wrap;html=1;backgroundOutline=1;fillColor=#f8cecc;strokeColor=#b85450;" vertex="1" parent="yQ1LGu9JGNTzou9qTPWQ-83">
          <mxGeometry x="45" y="45" width="120" height="60" as="geometry" />
        </mxCell>
        <mxCell id="yQ1LGu9JGNTzou9qTPWQ-86" value="" style="swimlane;startSize=0;" vertex="1" parent="1">
          <mxGeometry x="490" y="2242" width="210" height="150" as="geometry">
            <mxRectangle x="130" y="520" width="50" height="40" as="alternateBounds" />
          </mxGeometry>
        </mxCell>
        <mxCell id="yQ1LGu9JGNTzou9qTPWQ-87" value="&lt;b&gt;Genesys Division Prod&lt;/b&gt;" style="text;html=1;align=left;verticalAlign=middle;resizable=0;points=[];autosize=1;strokeColor=#6c8ebf;fillColor=#dae8fc;" vertex="1" parent="yQ1LGu9JGNTzou9qTPWQ-86">
          <mxGeometry x="10" width="150" height="30" as="geometry" />
        </mxCell>
        <mxCell id="yQ1LGu9JGNTzou9qTPWQ-88" value="Nuevo DataAction Prod" style="shape=process;whiteSpace=wrap;html=1;backgroundOutline=1;fillColor=#d5e8d4;strokeColor=#82b366;" vertex="1" parent="yQ1LGu9JGNTzou9qTPWQ-86">
          <mxGeometry x="45" y="45" width="120" height="60" as="geometry" />
        </mxCell>
        <mxCell id="yQ1LGu9JGNTzou9qTPWQ-90" value="Paso a Producción Lambda vía Solicitud DevOps Middleware" style="text;html=1;align=left;verticalAlign=middle;resizable=0;points=[];autosize=1;strokeColor=none;fillColor=none;" vertex="1" parent="1">
          <mxGeometry x="83.5" y="2010" width="350" height="30" as="geometry" />
        </mxCell>
        <mxCell id="yQ1LGu9JGNTzou9qTPWQ-91" value="Paso a Producción DataAction vía Solicitud DevOps Intel.&amp;nbsp; Se entrega la exportación y documento de&amp;nbsp;&lt;div&gt;configuración para que apunte a Producción.&amp;nbsp;&lt;/div&gt;" style="text;html=1;align=left;verticalAlign=middle;resizable=0;points=[];autosize=1;strokeColor=none;fillColor=none;" vertex="1" parent="1">
          <mxGeometry x="83.5" y="2188" width="570" height="40" as="geometry" />
        </mxCell>
        <mxCell id="yQ1LGu9JGNTzou9qTPWQ-92" value="El equipo de desarrollo prepara el exportable del Flow en QA para que apunte a Producción." style="text;html=1;align=left;verticalAlign=middle;resizable=0;points=[];autosize=1;strokeColor=none;fillColor=none;" vertex="1" parent="1">
          <mxGeometry x="83.5" y="2425" width="520" height="30" as="geometry" />
        </mxCell>
        <mxCell id="yQ1LGu9JGNTzou9qTPWQ-93" value="Flow Division QA Temporal Genesys Cloud" style="swimlane;startSize=20;horizontal=1;childLayout=treeLayout;horizontalTree=0;sortEdges=1;resizable=0;containerType=tree;fontSize=12;fillColor=#dae8fc;strokeColor=#6c8ebf;" vertex="1" parent="1">
          <mxGeometry x="110" y="2500" width="280" height="190" as="geometry" />
        </mxCell>
        <mxCell id="yQ1LGu9JGNTzou9qTPWQ-94" value="Flow QA" style="whiteSpace=wrap;html=1;" vertex="1" parent="yQ1LGu9JGNTzou9qTPWQ-93">
          <mxGeometry x="90" y="40" width="100" height="40" as="geometry" />
        </mxCell>
        <mxCell id="yQ1LGu9JGNTzou9qTPWQ-95" value="New DataAction Prod" style="whiteSpace=wrap;html=1;fillColor=#d5e8d4;strokeColor=#82b366;" vertex="1" parent="yQ1LGu9JGNTzou9qTPWQ-93">
          <mxGeometry x="20" y="130" width="100" height="40" as="geometry" />
        </mxCell>
        <mxCell id="yQ1LGu9JGNTzou9qTPWQ-96" value="" style="edgeStyle=elbowEdgeStyle;elbow=vertical;html=1;rounded=1;curved=0;sourcePerimeterSpacing=0;targetPerimeterSpacing=0;startSize=6;endSize=6;" edge="1" parent="yQ1LGu9JGNTzou9qTPWQ-93" source="yQ1LGu9JGNTzou9qTPWQ-94" target="yQ1LGu9JGNTzou9qTPWQ-95">
          <mxGeometry relative="1" as="geometry" />
        </mxCell>
        <mxCell id="yQ1LGu9JGNTzou9qTPWQ-97" value="Audio Transversal" style="whiteSpace=wrap;html=1;" vertex="1" parent="yQ1LGu9JGNTzou9qTPWQ-93">
          <mxGeometry x="160" y="130" width="100" height="40" as="geometry" />
        </mxCell>
        <mxCell id="yQ1LGu9JGNTzou9qTPWQ-98" value="" style="edgeStyle=elbowEdgeStyle;elbow=vertical;html=1;rounded=1;curved=0;sourcePerimeterSpacing=0;targetPerimeterSpacing=0;startSize=6;endSize=6;" edge="1" parent="yQ1LGu9JGNTzou9qTPWQ-93" source="yQ1LGu9JGNTzou9qTPWQ-94" target="yQ1LGu9JGNTzou9qTPWQ-97">
          <mxGeometry relative="1" as="geometry" />
        </mxCell>
        <mxCell id="yQ1LGu9JGNTzou9qTPWQ-102" style="edgeStyle=orthogonalEdgeStyle;rounded=0;orthogonalLoop=1;jettySize=auto;html=1;entryX=1;entryY=0.5;entryDx=0;entryDy=0;" edge="1" parent="1" source="yQ1LGu9JGNTzou9qTPWQ-99" target="yQ1LGu9JGNTzou9qTPWQ-93">
          <mxGeometry relative="1" as="geometry" />
        </mxCell>
        <mxCell id="yQ1LGu9JGNTzou9qTPWQ-99" value="" style="swimlane;startSize=0;" vertex="1" parent="1">
          <mxGeometry x="540" y="2520" width="210" height="150" as="geometry">
            <mxRectangle x="130" y="520" width="50" height="40" as="alternateBounds" />
          </mxGeometry>
        </mxCell>
        <mxCell id="yQ1LGu9JGNTzou9qTPWQ-100" value="&lt;b&gt;Genesys Division Prod&lt;/b&gt;" style="text;html=1;align=left;verticalAlign=middle;resizable=0;points=[];autosize=1;strokeColor=#6c8ebf;fillColor=#dae8fc;" vertex="1" parent="yQ1LGu9JGNTzou9qTPWQ-99">
          <mxGeometry x="10" width="150" height="30" as="geometry" />
        </mxCell>
        <mxCell id="yQ1LGu9JGNTzou9qTPWQ-101" value="Nuevo DataAction Prod" style="shape=process;whiteSpace=wrap;html=1;backgroundOutline=1;fillColor=#d5e8d4;strokeColor=#82b366;" vertex="1" parent="yQ1LGu9JGNTzou9qTPWQ-99">
          <mxGeometry x="45" y="45" width="120" height="60" as="geometry" />
        </mxCell>
        <mxCell id="yQ1LGu9JGNTzou9qTPWQ-103" value="exportable&lt;br&gt;.i3InboundFlow" style="shape=note;whiteSpace=wrap;html=1;backgroundOutline=1;darkOpacity=0.05;" vertex="1" parent="1">
          <mxGeometry x="360" y="2740" width="100" height="100" as="geometry" />
        </mxCell>
        <mxCell id="yQ1LGu9JGNTzou9qTPWQ-104" style="edgeStyle=orthogonalEdgeStyle;rounded=0;orthogonalLoop=1;jettySize=auto;html=1;entryX=0;entryY=0.5;entryDx=0;entryDy=0;entryPerimeter=0;" edge="1" parent="1" source="yQ1LGu9JGNTzou9qTPWQ-93" target="yQ1LGu9JGNTzou9qTPWQ-103">
          <mxGeometry relative="1" as="geometry" />
        </mxCell>
        <mxCell id="yQ1LGu9JGNTzou9qTPWQ-105" value="Se genera la solicitud Devops a Intel para la importación y despliegue en Producción del Flujo" style="text;html=1;align=left;verticalAlign=middle;resizable=0;points=[];autosize=1;strokeColor=none;fillColor=none;" vertex="1" parent="1">
          <mxGeometry x="83.5" y="2880" width="520" height="30" as="geometry" />
        </mxCell>
        <mxCell id="yQ1LGu9JGNTzou9qTPWQ-106" value="Flow Division Prod Genesys Cloud" style="swimlane;startSize=20;horizontal=1;childLayout=treeLayout;horizontalTree=0;sortEdges=1;resizable=0;containerType=tree;fontSize=12;fillColor=#dae8fc;strokeColor=#6c8ebf;" vertex="1" parent="1">
          <mxGeometry x="414" y="2972" width="280" height="193" as="geometry" />
        </mxCell>
        <mxCell id="yQ1LGu9JGNTzou9qTPWQ-107" value="Flow Prod" style="whiteSpace=wrap;html=1;" vertex="1" parent="yQ1LGu9JGNTzou9qTPWQ-106">
          <mxGeometry x="90" y="40" width="100" height="40" as="geometry" />
        </mxCell>
        <mxCell id="yQ1LGu9JGNTzou9qTPWQ-108" value="New DataAction Prod" style="whiteSpace=wrap;html=1;fillColor=#d5e8d4;strokeColor=#82b366;" vertex="1" parent="yQ1LGu9JGNTzou9qTPWQ-106">
          <mxGeometry x="20" y="132.5" width="100" height="40" as="geometry" />
        </mxCell>
        <mxCell id="yQ1LGu9JGNTzou9qTPWQ-109" value="" style="edgeStyle=elbowEdgeStyle;elbow=vertical;html=1;rounded=1;curved=0;sourcePerimeterSpacing=0;targetPerimeterSpacing=0;startSize=6;endSize=6;" edge="1" parent="yQ1LGu9JGNTzou9qTPWQ-106" source="yQ1LGu9JGNTzou9qTPWQ-107" target="yQ1LGu9JGNTzou9qTPWQ-108">
          <mxGeometry relative="1" as="geometry" />
        </mxCell>
        <mxCell id="yQ1LGu9JGNTzou9qTPWQ-110" value="Audio Transversal" style="whiteSpace=wrap;html=1;" vertex="1" parent="yQ1LGu9JGNTzou9qTPWQ-106">
          <mxGeometry x="160" y="130" width="100" height="40" as="geometry" />
        </mxCell>
        <mxCell id="yQ1LGu9JGNTzou9qTPWQ-111" value="" style="edgeStyle=elbowEdgeStyle;elbow=vertical;html=1;rounded=1;curved=0;sourcePerimeterSpacing=0;targetPerimeterSpacing=0;startSize=6;endSize=6;" edge="1" parent="yQ1LGu9JGNTzou9qTPWQ-106" source="yQ1LGu9JGNTzou9qTPWQ-107" target="yQ1LGu9JGNTzou9qTPWQ-110">
          <mxGeometry relative="1" as="geometry" />
        </mxCell>
        <mxCell id="yQ1LGu9JGNTzou9qTPWQ-113" style="edgeStyle=orthogonalEdgeStyle;rounded=0;orthogonalLoop=1;jettySize=auto;html=1;entryX=0;entryY=0.5;entryDx=0;entryDy=0;" edge="1" parent="1" source="yQ1LGu9JGNTzou9qTPWQ-112" target="yQ1LGu9JGNTzou9qTPWQ-106">
          <mxGeometry relative="1" as="geometry" />
        </mxCell>
        <mxCell id="yQ1LGu9JGNTzou9qTPWQ-112" value="exportable&lt;br&gt;.i3InboundFlow" style="shape=note;whiteSpace=wrap;html=1;backgroundOutline=1;darkOpacity=0.05;" vertex="1" parent="1">
          <mxGeometry x="230" y="3017" width="100" height="100" as="geometry" />
        </mxCell>
      </root>
    </mxGraphModel>
  </diagram>
</mxfile>
